<svg width="124" height="872" viewBox="0 0 124 872" fill="none" xmlns="http://www.w3.org/2000/svg">
<rect width="124" height="32" fill="white"/>
<rect width="124" height="32" transform="translate(0 33)" fill="#EEEEEE"/>
<path d="M19.8361 50.3333C20.6641 50.3333 21.3353 51.0045 21.3353 51.8325V52.4448C21.3353 52.8271 21.2159 53.1998 20.9936 53.5108C19.963 54.9529 18.2802 55.6674 16 55.6674C13.7193 55.6674 12.0374 54.9526 11.0093 53.5097C10.7879 53.1991 10.669 52.8272 10.669 52.4458V51.8325C10.669 51.0045 11.3402 50.3333 12.1683 50.3333H19.8361ZM16 42.3364C17.8409 42.3364 19.3333 43.8288 19.3333 45.6697C19.3333 47.5107 17.8409 49.0031 16 49.0031C14.159 49.0031 12.6666 47.5107 12.6666 45.6697C12.6666 43.8288 14.159 42.3364 16 42.3364Z" fill="#AFAFAF"/>
<path d="M19.8361 50.3333C20.6641 50.3333 21.3353 51.0045 21.3353 51.8325V52.4448C21.3353 52.8271 21.2159 53.1998 20.9936 53.5108C19.963 54.9529 18.2802 55.6674 16 55.6674C13.7193 55.6674 12.0374 54.9526 11.0093 53.5097C10.7879 53.1991 10.669 52.8272 10.669 52.4458V51.8325C10.669 51.0045 11.3402 50.3333 12.1683 50.3333H19.8361ZM16 42.3364C17.8409 42.3364 19.3333 43.8288 19.3333 45.6697C19.3333 47.5107 17.8409 49.0031 16 49.0031C14.159 49.0031 12.6666 47.5107 12.6666 45.6697C12.6666 43.8288 14.159 42.3364 16 42.3364Z" fill="black" fill-opacity="0.7" style="mix-blend-mode:hue"/>
<path d="M19.8361 50.3333C20.6641 50.3333 21.3353 51.0045 21.3353 51.8325V52.4448C21.3353 52.8271 21.2159 53.1998 20.9936 53.5108C19.963 54.9529 18.2802 55.6674 16 55.6674C13.7193 55.6674 12.0374 54.9526 11.0093 53.5097C10.7879 53.1991 10.669 52.8272 10.669 52.4458V51.8325C10.669 51.0045 11.3402 50.3333 12.1683 50.3333H19.8361ZM16 42.3364C17.8409 42.3364 19.3333 43.8288 19.3333 45.6697C19.3333 47.5107 17.8409 49.0031 16 49.0031C14.159 49.0031 12.6666 47.5107 12.6666 45.6697C12.6666 43.8288 14.159 42.3364 16 42.3364Z" fill="white" fill-opacity="0.16"/>
<path d="M31.924 44.96C32.644 44.96 33.276 45.084 33.82 45.332C34.364 45.58 34.828 45.948 35.212 46.436L34.288 47.504C33.96 47.088 33.6 46.784 33.208 46.592C32.824 46.392 32.376 46.292 31.864 46.292C31.528 46.292 31.248 46.336 31.024 46.424C30.808 46.512 30.648 46.628 30.544 46.772C30.448 46.916 30.4 47.076 30.4 47.252C30.4 47.468 30.484 47.652 30.652 47.804C30.82 47.948 31.108 48.068 31.516 48.164L32.992 48.5C33.776 48.676 34.336 48.94 34.672 49.292C35.016 49.636 35.188 50.084 35.188 50.636C35.188 51.156 35.052 51.604 34.78 51.98C34.508 52.348 34.128 52.632 33.64 52.832C33.152 53.024 32.592 53.12 31.96 53.12C31.408 53.12 30.9 53.056 30.436 52.928C29.98 52.792 29.572 52.608 29.212 52.376C28.852 52.144 28.552 51.876 28.312 51.572L29.248 50.456C29.432 50.712 29.66 50.94 29.932 51.14C30.204 51.34 30.512 51.5 30.856 51.62C31.208 51.732 31.576 51.788 31.96 51.788C32.288 51.788 32.564 51.752 32.788 51.68C33.02 51.6 33.192 51.492 33.304 51.356C33.424 51.212 33.484 51.04 33.484 50.84C33.484 50.632 33.412 50.456 33.268 50.312C33.132 50.16 32.876 50.044 32.5 49.964L30.892 49.604C30.428 49.492 30.028 49.348 29.692 49.172C29.364 48.988 29.112 48.756 28.936 48.476C28.768 48.188 28.684 47.848 28.684 47.456C28.684 46.984 28.812 46.56 29.068 46.184C29.324 45.808 29.692 45.512 30.172 45.296C30.66 45.072 31.244 44.96 31.924 44.96ZM38.6395 53.12C38.2395 53.12 37.8795 53.048 37.5595 52.904C37.2395 52.76 36.9835 52.532 36.7915 52.22C36.6075 51.9 36.5155 51.488 36.5155 50.984V47H38.1595V50.588C38.1595 51.052 38.2555 51.376 38.4475 51.56C38.6395 51.736 38.9155 51.824 39.2755 51.824C39.4435 51.824 39.6075 51.796 39.7675 51.74C39.9275 51.676 40.0675 51.58 40.1875 51.452C40.3155 51.324 40.4155 51.16 40.4875 50.96C40.5595 50.752 40.5955 50.508 40.5955 50.228V47H42.2395V53H40.7755L40.7155 51.956C40.5155 52.356 40.2395 52.652 39.8875 52.844C39.5435 53.028 39.1275 53.12 38.6395 53.12ZM47.4975 53.12C47.1295 53.12 46.7935 53.044 46.4895 52.892C46.1935 52.732 45.9455 52.516 45.7455 52.244C45.5535 51.964 45.4215 51.652 45.3495 51.308L45.5175 51.092L45.4215 53H43.9695V44.372H45.6135V48.692L45.4575 48.44C45.5855 47.992 45.8295 47.62 46.1895 47.324C46.5495 47.028 47.0015 46.88 47.5455 46.88C48.0175 46.88 48.4455 47.004 48.8295 47.252C49.2135 47.5 49.5135 47.856 49.7295 48.32C49.9535 48.784 50.0655 49.348 50.0655 50.012C50.0655 50.66 49.9535 51.216 49.7295 51.68C49.5135 52.144 49.2095 52.5 48.8175 52.748C48.4335 52.996 47.9935 53.12 47.4975 53.12ZM47.0055 51.86C47.4455 51.86 47.7895 51.704 48.0375 51.392C48.2935 51.072 48.4215 50.608 48.4215 50C48.4215 49.392 48.2975 48.932 48.0495 48.62C47.8015 48.3 47.4575 48.14 47.0175 48.14C46.7295 48.14 46.4815 48.216 46.2735 48.368C46.0655 48.52 45.9015 48.736 45.7815 49.016C45.6695 49.296 45.6135 49.628 45.6135 50.012C45.6135 50.404 45.6695 50.74 45.7815 51.02C45.9015 51.292 46.0655 51.5 46.2735 51.644C46.4895 51.788 46.7335 51.86 47.0055 51.86ZM51.4929 53V47H52.9689L53.0289 48.08C53.2289 47.68 53.5009 47.38 53.8449 47.18C54.1969 46.98 54.5849 46.88 55.0089 46.88C55.4409 46.88 55.8289 46.98 56.1729 47.18C56.5249 47.38 56.7889 47.676 56.9649 48.068C57.0929 47.804 57.2649 47.584 57.4809 47.408C57.6969 47.232 57.9369 47.1 58.2009 47.012C58.4649 46.924 58.7329 46.88 59.0049 46.88C59.3969 46.88 59.7529 46.96 60.0729 47.12C60.4009 47.28 60.6609 47.52 60.8529 47.84C61.0449 48.16 61.1409 48.568 61.1409 49.064V53H59.4969V49.388C59.4969 48.948 59.4009 48.636 59.2089 48.452C59.0169 48.268 58.7689 48.176 58.4649 48.176C58.2249 48.176 58.0009 48.236 57.7929 48.356C57.5929 48.476 57.4329 48.656 57.3129 48.896C57.2009 49.128 57.1449 49.42 57.1449 49.772V53H55.5009V49.388C55.5009 48.948 55.4009 48.636 55.2009 48.452C55.0089 48.268 54.7609 48.176 54.4569 48.176C54.2489 48.176 54.0409 48.232 53.8329 48.344C53.6329 48.456 53.4649 48.632 53.3289 48.872C53.2009 49.112 53.1369 49.428 53.1369 49.82V53H51.4929ZM63.6647 46.136C63.3207 46.136 63.0647 46.064 62.8967 45.92C62.7287 45.768 62.6447 45.548 62.6447 45.26C62.6447 44.964 62.7287 44.744 62.8967 44.6C63.0647 44.448 63.3207 44.372 63.6647 44.372C64.0087 44.372 64.2647 44.448 64.4327 44.6C64.6007 44.744 64.6847 44.964 64.6847 45.26C64.6847 45.548 64.6007 45.768 64.4327 45.92C64.2647 46.064 64.0087 46.136 63.6647 46.136ZM64.4807 47V53H62.8367V47H64.4807ZM68.3474 45.164V51.044C68.3474 51.332 68.4194 51.544 68.5634 51.68C68.7154 51.808 68.9194 51.872 69.1754 51.872C69.3754 51.872 69.5514 51.844 69.7034 51.788C69.8554 51.724 69.9914 51.64 70.1114 51.536L70.3754 52.628C70.1834 52.78 69.9434 52.9 69.6554 52.988C69.3674 53.076 69.0634 53.12 68.7434 53.12C68.3434 53.12 67.9874 53.06 67.6754 52.94C67.3714 52.82 67.1314 52.628 66.9554 52.364C66.7874 52.1 66.7034 51.748 66.7034 51.308V45.62L68.3474 45.164ZM70.2674 47V48.224H65.5994V47H70.2674ZM72.9411 45.164V51.044C72.9411 51.332 73.0131 51.544 73.1571 51.68C73.3091 51.808 73.5131 51.872 73.7691 51.872C73.9691 51.872 74.1451 51.844 74.2971 51.788C74.4491 51.724 74.5851 51.64 74.7051 51.536L74.9691 52.628C74.7771 52.78 74.5371 52.9 74.2491 52.988C73.9611 53.076 73.6571 53.12 73.3371 53.12C72.9371 53.12 72.5811 53.06 72.2691 52.94C71.9651 52.82 71.7251 52.628 71.5491 52.364C71.3811 52.1 71.2971 51.748 71.2971 51.308V45.62L72.9411 45.164ZM74.8611 47V48.224H70.1931V47H74.8611ZM78.7574 53.12C78.1254 53.12 77.5734 52.996 77.1014 52.748C76.6374 52.5 76.2774 52.144 76.0214 51.68C75.7654 51.216 75.6374 50.656 75.6374 50C75.6374 49.344 75.7654 48.784 76.0214 48.32C76.2774 47.856 76.6334 47.5 77.0894 47.252C77.5534 47.004 78.0814 46.88 78.6734 46.88C79.2814 46.88 79.7974 47.004 80.2214 47.252C80.6454 47.492 80.9694 47.824 81.1934 48.248C81.4174 48.664 81.5294 49.14 81.5294 49.676C81.5294 49.836 81.5254 49.988 81.5174 50.132C81.5094 50.276 81.4974 50.404 81.4814 50.516H76.6934V49.376H80.7614L79.9694 49.664C79.9694 49.16 79.8534 48.772 79.6214 48.5C79.3974 48.228 79.0774 48.092 78.6614 48.092C78.3574 48.092 78.0934 48.164 77.8694 48.308C77.6534 48.452 77.4894 48.668 77.3774 48.956C77.2654 49.236 77.2094 49.592 77.2094 50.024C77.2094 50.448 77.2694 50.8 77.3894 51.08C77.5174 51.352 77.6934 51.556 77.9174 51.692C78.1494 51.828 78.4254 51.896 78.7454 51.896C79.0974 51.896 79.3814 51.828 79.5974 51.692C79.8134 51.556 79.9814 51.368 80.1014 51.128L81.4094 51.632C81.2814 51.944 81.0854 52.212 80.8214 52.436C80.5654 52.66 80.2574 52.832 79.8974 52.952C79.5454 53.064 79.1654 53.12 78.7574 53.12ZM82.9226 53V47H84.3506L84.4586 48.176C84.6186 47.76 84.8506 47.44 85.1546 47.216C85.4666 46.992 85.8546 46.88 86.3186 46.88C86.4546 46.88 86.5786 46.892 86.6906 46.916C86.8026 46.94 86.8946 46.972 86.9666 47.012L86.7746 48.392C86.6946 48.36 86.5946 48.336 86.4746 48.32C86.3626 48.304 86.2146 48.296 86.0306 48.296C85.7906 48.296 85.5586 48.356 85.3346 48.476C85.1106 48.588 84.9266 48.764 84.7826 49.004C84.6386 49.236 84.5666 49.532 84.5666 49.892V53H82.9226Z" fill="#757575"/>
<path d="M106.146 47.1464C106.342 46.9512 106.658 46.9512 106.854 47.1464L110 50.2929L113.146 47.1464C113.342 46.9512 113.658 46.9512 113.854 47.1464C114.049 47.3417 114.049 47.6583 113.854 47.8536L110.354 51.3536C110.158 51.5488 109.842 51.5488 109.646 51.3536L106.146 47.8536C105.951 47.6583 105.951 47.3417 106.146 47.1464Z" fill="#AFAFAF"/>
<rect width="124" height="32" transform="translate(0 66)" fill="white"/>
<path d="M15.608 86H14.588L13.748 83.804H10.16L9.32 86H8.312L11.396 78.08H12.536L15.608 86ZM10.508 82.904H13.4L11.948 79.004L10.508 82.904ZM17.5179 78.848C17.3019 78.848 17.1259 78.784 16.9899 78.656C16.8619 78.52 16.7979 78.344 16.7979 78.128C16.7979 77.912 16.8619 77.74 16.9899 77.612C17.1259 77.476 17.3019 77.408 17.5179 77.408C17.7339 77.408 17.9059 77.476 18.0339 77.612C18.1699 77.74 18.2379 77.912 18.2379 78.128C18.2379 78.344 18.1699 78.52 18.0339 78.656C17.9059 78.784 17.7339 78.848 17.5179 78.848ZM17.9979 80V86H17.0379V80H17.9979ZM22.3854 86.12C21.8014 86.12 21.2614 85.996 20.7654 85.748C20.2774 85.5 19.9014 85.148 19.6374 84.692L20.4534 84.104C20.6294 84.472 20.8854 84.76 21.2214 84.968C21.5654 85.176 21.9774 85.28 22.4574 85.28C22.8814 85.28 23.2134 85.2 23.4534 85.04C23.6934 84.872 23.8134 84.656 23.8134 84.392C23.8134 84.224 23.7574 84.072 23.6454 83.936C23.5414 83.792 23.3374 83.688 23.0334 83.624L21.5934 83.324C21.0094 83.204 20.5894 83.004 20.3334 82.724C20.0854 82.444 19.9614 82.096 19.9614 81.68C19.9614 81.352 20.0534 81.052 20.2374 80.78C20.4294 80.508 20.6974 80.292 21.0414 80.132C21.3934 79.964 21.8054 79.88 22.2774 79.88C22.8694 79.88 23.3694 79.996 23.7774 80.228C24.1854 80.46 24.4894 80.788 24.6894 81.212L23.8854 81.74C23.7494 81.388 23.5294 81.132 23.2254 80.972C22.9214 80.804 22.6054 80.72 22.2774 80.72C21.9894 80.72 21.7414 80.76 21.5334 80.84C21.3334 80.92 21.1774 81.032 21.0654 81.176C20.9614 81.312 20.9094 81.468 20.9094 81.644C20.9094 81.82 20.9694 81.984 21.0894 82.136C21.2094 82.28 21.4334 82.384 21.7614 82.448L23.2614 82.76C23.8214 82.872 24.2134 83.056 24.4374 83.312C24.6614 83.568 24.7734 83.88 24.7734 84.248C24.7734 84.624 24.6734 84.956 24.4734 85.244C24.2734 85.524 23.9934 85.74 23.6334 85.892C23.2734 86.044 22.8574 86.12 22.3854 86.12ZM26.5535 86V77.24H27.5135V80.9C27.7215 80.54 27.9975 80.28 28.3415 80.12C28.6855 79.96 29.0615 79.88 29.4695 79.88C29.9015 79.88 30.2935 79.964 30.6455 80.132C30.9975 80.292 31.2775 80.54 31.4855 80.876C31.7015 81.212 31.8095 81.64 31.8095 82.16V86H30.8495V82.496C30.8495 81.832 30.7055 81.372 30.4175 81.116C30.1375 80.852 29.7895 80.72 29.3735 80.72C29.0855 80.72 28.7975 80.788 28.5095 80.924C28.2215 81.06 27.9815 81.284 27.7895 81.596C27.6055 81.9 27.5135 82.308 27.5135 82.82V86H26.5535ZM37.4872 82.124C37.4872 81.676 37.3672 81.332 37.1272 81.092C36.8872 80.844 36.5472 80.72 36.1072 80.72C35.6912 80.72 35.3392 80.812 35.0512 80.996C34.7632 81.172 34.5512 81.46 34.4152 81.86L33.6352 81.38C33.7952 80.932 34.0912 80.572 34.5232 80.3C34.9552 80.02 35.4912 79.88 36.1312 79.88C36.5632 79.88 36.9552 79.956 37.3072 80.108C37.6592 80.252 37.9352 80.476 38.1352 80.78C38.3432 81.076 38.4472 81.46 38.4472 81.932V84.836C38.4472 85.124 38.5992 85.268 38.9032 85.268C39.0552 85.268 39.2032 85.248 39.3472 85.208L39.2992 85.964C39.1392 86.044 38.9312 86.084 38.6752 86.084C38.4432 86.084 38.2352 86.04 38.0512 85.952C37.8672 85.864 37.7232 85.732 37.6192 85.556C37.5152 85.372 37.4632 85.144 37.4632 84.872V84.752L37.7032 84.788C37.6072 85.1 37.4432 85.356 37.2112 85.556C36.9792 85.748 36.7192 85.892 36.4312 85.988C36.1432 86.076 35.8592 86.12 35.5792 86.12C35.2272 86.12 34.8992 86.06 34.5952 85.94C34.2912 85.82 34.0472 85.64 33.8632 85.4C33.6872 85.152 33.5992 84.848 33.5992 84.488C33.5992 84.04 33.7472 83.672 34.0432 83.384C34.3472 83.088 34.7672 82.888 35.3032 82.784L37.6792 82.316V83.108L35.7472 83.504C35.3552 83.584 35.0632 83.696 34.8712 83.84C34.6792 83.984 34.5832 84.184 34.5832 84.44C34.5832 84.688 34.6792 84.892 34.8712 85.052C35.0712 85.204 35.3512 85.28 35.7112 85.28C35.9432 85.28 36.1632 85.252 36.3712 85.196C36.5872 85.132 36.7792 85.04 36.9472 84.92C37.1152 84.792 37.2472 84.636 37.3432 84.452C37.4392 84.26 37.4872 84.036 37.4872 83.78V82.124ZM47.5647 78.08C48.1007 78.08 48.5647 78.18 48.9567 78.38C49.3567 78.572 49.6687 78.848 49.8927 79.208C50.1167 79.568 50.2287 79.996 50.2287 80.492C50.2287 80.988 50.1167 81.416 49.8927 81.776C49.6687 82.136 49.3567 82.416 48.9567 82.616C48.5647 82.808 48.1007 82.904 47.5647 82.904H45.7287V86H44.7687V78.08H47.5647ZM47.4207 82.004C48.0447 82.004 48.5007 81.876 48.7887 81.62C49.0767 81.356 49.2207 80.98 49.2207 80.492C49.2207 79.996 49.0767 79.62 48.7887 79.364C48.5007 79.108 48.0447 78.98 47.4207 78.98H45.7287V82.004H47.4207ZM55.4169 82.124C55.4169 81.676 55.2969 81.332 55.0569 81.092C54.8169 80.844 54.4769 80.72 54.0369 80.72C53.6209 80.72 53.2689 80.812 52.9809 80.996C52.6929 81.172 52.4809 81.46 52.3449 81.86L51.5649 81.38C51.7249 80.932 52.0209 80.572 52.4529 80.3C52.8849 80.02 53.4209 79.88 54.0609 79.88C54.4929 79.88 54.8849 79.956 55.2369 80.108C55.5889 80.252 55.8649 80.476 56.0649 80.78C56.2729 81.076 56.3769 81.46 56.3769 81.932V84.836C56.3769 85.124 56.5289 85.268 56.8329 85.268C56.9849 85.268 57.1329 85.248 57.2769 85.208L57.2289 85.964C57.0689 86.044 56.8609 86.084 56.6049 86.084C56.3729 86.084 56.1649 86.04 55.9809 85.952C55.7969 85.864 55.6529 85.732 55.5489 85.556C55.4449 85.372 55.3929 85.144 55.3929 84.872V84.752L55.6329 84.788C55.5369 85.1 55.3729 85.356 55.1409 85.556C54.9089 85.748 54.6489 85.892 54.3609 85.988C54.0729 86.076 53.7889 86.12 53.5089 86.12C53.1569 86.12 52.8289 86.06 52.5249 85.94C52.2209 85.82 51.9769 85.64 51.7929 85.4C51.6169 85.152 51.5289 84.848 51.5289 84.488C51.5289 84.04 51.6769 83.672 51.9729 83.384C52.2769 83.088 52.6969 82.888 53.2329 82.784L55.6089 82.316V83.108L53.6769 83.504C53.2849 83.584 52.9929 83.696 52.8009 83.84C52.6089 83.984 52.5129 84.184 52.5129 84.44C52.5129 84.688 52.6089 84.892 52.8009 85.052C53.0009 85.204 53.2809 85.28 53.6409 85.28C53.8729 85.28 54.0929 85.252 54.3009 85.196C54.5169 85.132 54.7089 85.04 54.8769 84.92C55.0449 84.792 55.1769 84.636 55.2729 84.452C55.3689 84.26 55.4169 84.036 55.4169 83.78V82.124ZM59.8914 78.296V84.344C59.8914 84.64 59.9754 84.86 60.1434 85.004C60.3114 85.148 60.5274 85.22 60.7914 85.22C61.0234 85.22 61.2234 85.18 61.3914 85.1C61.5594 85.02 61.7114 84.912 61.8474 84.776L62.1834 85.58C61.9994 85.748 61.7794 85.88 61.5234 85.976C61.2754 86.072 60.9874 86.12 60.6594 86.12C60.3554 86.12 60.0714 86.068 59.8074 85.964C59.5434 85.852 59.3314 85.68 59.1714 85.448C59.0194 85.208 58.9394 84.896 58.9314 84.512V78.56L59.8914 78.296ZM62.0754 80V80.828H57.7314V80H62.0754ZM66.0107 86.12C65.4427 86.12 64.9347 85.996 64.4867 85.748C64.0467 85.5 63.7027 85.144 63.4547 84.68C63.2067 84.208 63.0827 83.648 63.0827 83C63.0827 82.352 63.2067 81.796 63.4547 81.332C63.7027 80.86 64.0427 80.5 64.4747 80.252C64.9067 80.004 65.3987 79.88 65.9507 79.88C66.5107 79.88 66.9867 80 67.3787 80.24C67.7787 80.48 68.0827 80.808 68.2907 81.224C68.4987 81.632 68.6027 82.092 68.6027 82.604C68.6027 82.74 68.5987 82.864 68.5907 82.976C68.5827 83.088 68.5707 83.188 68.5547 83.276H63.7067V82.424H68.1347L67.6427 82.52C67.6427 81.944 67.4827 81.5 67.1627 81.188C66.8507 80.876 66.4387 80.72 65.9267 80.72C65.5347 80.72 65.1947 80.812 64.9067 80.996C64.6267 81.172 64.4067 81.432 64.2467 81.776C64.0947 82.112 64.0187 82.52 64.0187 83C64.0187 83.472 64.0987 83.88 64.2587 84.224C64.4187 84.568 64.6427 84.832 64.9307 85.016C65.2267 85.192 65.5787 85.28 65.9867 85.28C66.4267 85.28 66.7827 85.196 67.0547 85.028C67.3347 84.86 67.5587 84.632 67.7267 84.344L68.4827 84.788C68.3307 85.06 68.1347 85.296 67.8947 85.496C67.6627 85.696 67.3867 85.852 67.0667 85.964C66.7547 86.068 66.4027 86.12 66.0107 86.12ZM71.3405 77.24V84.476C71.3405 84.78 71.3965 84.992 71.5085 85.112C71.6205 85.224 71.8005 85.28 72.0485 85.28C72.2085 85.28 72.3405 85.268 72.4445 85.244C72.5485 85.22 72.6885 85.176 72.8645 85.112L72.7085 85.952C72.5805 86.008 72.4405 86.048 72.2885 86.072C72.1365 86.104 71.9805 86.12 71.8205 86.12C71.3325 86.12 70.9685 85.988 70.7285 85.724C70.4965 85.46 70.3805 85.056 70.3805 84.512V77.24H71.3405Z" fill="#121212"/>
<rect width="124" height="32" transform="translate(0 99)" fill="white"/>
<path d="M10.256 111.08V119H9.296V111.08H10.256ZM12.6082 119V113H13.3882L13.5202 113.984C13.6882 113.616 13.9322 113.34 14.2522 113.156C14.5802 112.972 14.9762 112.88 15.4402 112.88C15.5442 112.88 15.6562 112.888 15.7762 112.904C15.9042 112.92 16.0122 112.952 16.1002 113L15.9322 113.876C15.8442 113.844 15.7482 113.82 15.6442 113.804C15.5402 113.788 15.3922 113.78 15.2002 113.78C14.9522 113.78 14.7002 113.852 14.4442 113.996C14.1962 114.14 13.9882 114.36 13.8202 114.656C13.6522 114.944 13.5682 115.312 13.5682 115.76V119H12.6082ZM19.9426 110.18C20.1506 110.18 20.3466 110.204 20.5306 110.252C20.7146 110.3 20.8586 110.368 20.9626 110.456L20.7106 111.236C20.6146 111.172 20.5106 111.128 20.3986 111.104C20.2866 111.072 20.1626 111.056 20.0266 111.056C19.6826 111.056 19.4146 111.14 19.2226 111.308C19.0306 111.468 18.9346 111.728 18.9346 112.088V113V113.312V119H17.9746V111.992C17.9746 111.728 18.0146 111.484 18.0946 111.26C18.1746 111.036 18.2946 110.844 18.4546 110.684C18.6226 110.524 18.8306 110.4 19.0786 110.312C19.3266 110.224 19.6146 110.18 19.9426 110.18ZM20.9386 113V113.828H16.7746V113H20.9386ZM25.3583 115.124C25.3583 114.676 25.2383 114.332 24.9983 114.092C24.7583 113.844 24.4183 113.72 23.9783 113.72C23.5623 113.72 23.2103 113.812 22.9223 113.996C22.6343 114.172 22.4223 114.46 22.2863 114.86L21.5063 114.38C21.6663 113.932 21.9623 113.572 22.3943 113.3C22.8263 113.02 23.3623 112.88 24.0023 112.88C24.4343 112.88 24.8263 112.956 25.1783 113.108C25.5303 113.252 25.8063 113.476 26.0063 113.78C26.2143 114.076 26.3183 114.46 26.3183 114.932V117.836C26.3183 118.124 26.4703 118.268 26.7743 118.268C26.9263 118.268 27.0743 118.248 27.2183 118.208L27.1703 118.964C27.0103 119.044 26.8023 119.084 26.5463 119.084C26.3143 119.084 26.1063 119.04 25.9223 118.952C25.7383 118.864 25.5943 118.732 25.4903 118.556C25.3863 118.372 25.3343 118.144 25.3343 117.872V117.752L25.5743 117.788C25.4783 118.1 25.3143 118.356 25.0823 118.556C24.8503 118.748 24.5903 118.892 24.3023 118.988C24.0143 119.076 23.7303 119.12 23.4503 119.12C23.0983 119.12 22.7703 119.06 22.4663 118.94C22.1623 118.82 21.9183 118.64 21.7343 118.4C21.5583 118.152 21.4703 117.848 21.4703 117.488C21.4703 117.04 21.6183 116.672 21.9143 116.384C22.2183 116.088 22.6383 115.888 23.1743 115.784L25.5503 115.316V116.108L23.6183 116.504C23.2263 116.584 22.9343 116.696 22.7423 116.84C22.5503 116.984 22.4543 117.184 22.4543 117.44C22.4543 117.688 22.5503 117.892 22.7423 118.052C22.9423 118.204 23.2223 118.28 23.5823 118.28C23.8143 118.28 24.0343 118.252 24.2423 118.196C24.4583 118.132 24.6503 118.04 24.8183 117.92C24.9863 117.792 25.1183 117.636 25.2143 117.452C25.3103 117.26 25.3583 117.036 25.3583 116.78V115.124ZM28.6512 119V113H29.4912L29.5752 114.344L29.4192 114.212C29.5472 113.892 29.7192 113.636 29.9352 113.444C30.1512 113.244 30.3992 113.1 30.6792 113.012C30.9672 112.924 31.2632 112.88 31.5672 112.88C31.9992 112.88 32.3912 112.964 32.7432 113.132C33.0952 113.292 33.3752 113.54 33.5832 113.876C33.7992 114.212 33.9072 114.64 33.9072 115.16V119H32.9472V115.496C32.9472 114.832 32.8032 114.372 32.5152 114.116C32.2352 113.852 31.8872 113.72 31.4712 113.72C31.1832 113.72 30.8952 113.788 30.6072 113.924C30.3192 114.06 30.0792 114.28 29.8872 114.584C29.7032 114.888 29.6112 115.296 29.6112 115.808V119H28.6512ZM46.5547 111.08L43.0987 114.62L42.9547 114.776L40.8307 116.948V115.652L45.2947 111.08H46.5547ZM41.3107 111.08V119H40.3507V111.08H41.3107ZM43.1947 114.008L46.5907 119H45.4387L42.4027 114.548L43.1947 114.008ZM48.0457 119V110.24H49.0057V113.9C49.2137 113.54 49.4897 113.28 49.8337 113.12C50.1777 112.96 50.5537 112.88 50.9617 112.88C51.3937 112.88 51.7857 112.964 52.1377 113.132C52.4897 113.292 52.7697 113.54 52.9777 113.876C53.1937 114.212 53.3017 114.64 53.3017 115.16V119H52.3417V115.496C52.3417 114.832 52.1977 114.372 51.9097 114.116C51.6297 113.852 51.2817 113.72 50.8657 113.72C50.5777 113.72 50.2897 113.788 50.0017 113.924C49.7137 114.06 49.4737 114.284 49.2817 114.596C49.0977 114.9 49.0057 115.308 49.0057 115.82V119H48.0457ZM58.9794 115.124C58.9794 114.676 58.8594 114.332 58.6194 114.092C58.3794 113.844 58.0394 113.72 57.5994 113.72C57.1834 113.72 56.8314 113.812 56.5434 113.996C56.2554 114.172 56.0434 114.46 55.9074 114.86L55.1274 114.38C55.2874 113.932 55.5834 113.572 56.0154 113.3C56.4474 113.02 56.9834 112.88 57.6234 112.88C58.0554 112.88 58.4474 112.956 58.7994 113.108C59.1514 113.252 59.4274 113.476 59.6274 113.78C59.8354 114.076 59.9394 114.46 59.9394 114.932V117.836C59.9394 118.124 60.0914 118.268 60.3954 118.268C60.5474 118.268 60.6954 118.248 60.8394 118.208L60.7914 118.964C60.6314 119.044 60.4234 119.084 60.1674 119.084C59.9354 119.084 59.7274 119.04 59.5434 118.952C59.3594 118.864 59.2154 118.732 59.1114 118.556C59.0074 118.372 58.9554 118.144 58.9554 117.872V117.752L59.1954 117.788C59.0994 118.1 58.9354 118.356 58.7034 118.556C58.4714 118.748 58.2114 118.892 57.9234 118.988C57.6354 119.076 57.3514 119.12 57.0714 119.12C56.7194 119.12 56.3914 119.06 56.0874 118.94C55.7834 118.82 55.5394 118.64 55.3554 118.4C55.1794 118.152 55.0914 117.848 55.0914 117.488C55.0914 117.04 55.2394 116.672 55.5354 116.384C55.8394 116.088 56.2594 115.888 56.7954 115.784L59.1714 115.316V116.108L57.2394 116.504C56.8474 116.584 56.5554 116.696 56.3634 116.84C56.1714 116.984 56.0754 117.184 56.0754 117.44C56.0754 117.688 56.1714 117.892 56.3634 118.052C56.5634 118.204 56.8434 118.28 57.2034 118.28C57.4354 118.28 57.6554 118.252 57.8634 118.196C58.0794 118.132 58.2714 118.04 58.4394 117.92C58.6074 117.792 58.7394 117.636 58.8354 117.452C58.9314 117.26 58.9794 117.036 58.9794 116.78V115.124ZM62.2723 119V113H63.1123L63.1963 114.344L63.0403 114.212C63.1683 113.892 63.3403 113.636 63.5563 113.444C63.7723 113.244 64.0203 113.1 64.3003 113.012C64.5883 112.924 64.8843 112.88 65.1883 112.88C65.6203 112.88 66.0123 112.964 66.3643 113.132C66.7163 113.292 66.9963 113.54 67.2043 113.876C67.4203 114.212 67.5283 114.64 67.5283 115.16V119H66.5683V115.496C66.5683 114.832 66.4243 114.372 66.1363 114.116C65.8563 113.852 65.5083 113.72 65.0923 113.72C64.8043 113.72 64.5163 113.788 64.2283 113.924C63.9403 114.06 63.7003 114.28 63.5083 114.584C63.3243 114.888 63.2323 115.296 63.2323 115.808V119H62.2723Z" fill="#121212"/>
<rect width="124" height="32" transform="translate(0 132)" fill="white"/>
<path d="M16.952 144.08V152H16.04V147.02L16.148 144.932H16.136L13.532 152H12.716L10.112 144.932H10.1L10.208 147.02V152H9.296V144.08H10.772L12.512 148.892L13.112 150.872H13.136L13.748 148.904L15.476 144.08H16.952ZM22.7919 148.124C22.7919 147.676 22.6719 147.332 22.4319 147.092C22.1919 146.844 21.8519 146.72 21.4119 146.72C20.9959 146.72 20.6439 146.812 20.3559 146.996C20.0679 147.172 19.8559 147.46 19.7199 147.86L18.9399 147.38C19.0999 146.932 19.3959 146.572 19.8279 146.3C20.2599 146.02 20.7959 145.88 21.4359 145.88C21.8679 145.88 22.2599 145.956 22.6119 146.108C22.9639 146.252 23.2399 146.476 23.4399 146.78C23.6479 147.076 23.7519 147.46 23.7519 147.932V150.836C23.7519 151.124 23.9039 151.268 24.2079 151.268C24.3599 151.268 24.5079 151.248 24.6519 151.208L24.6039 151.964C24.4439 152.044 24.2359 152.084 23.9799 152.084C23.7479 152.084 23.5399 152.04 23.3559 151.952C23.1719 151.864 23.0279 151.732 22.9239 151.556C22.8199 151.372 22.7679 151.144 22.7679 150.872V150.752L23.0079 150.788C22.9119 151.1 22.7479 151.356 22.5159 151.556C22.2839 151.748 22.0239 151.892 21.7359 151.988C21.4479 152.076 21.1639 152.12 20.8839 152.12C20.5319 152.12 20.2039 152.06 19.8999 151.94C19.5959 151.82 19.3519 151.64 19.1679 151.4C18.9919 151.152 18.9039 150.848 18.9039 150.488C18.9039 150.04 19.0519 149.672 19.3479 149.384C19.6519 149.088 20.0719 148.888 20.6079 148.784L22.9839 148.316V149.108L21.0519 149.504C20.6599 149.584 20.3679 149.696 20.1759 149.84C19.9839 149.984 19.8879 150.184 19.8879 150.44C19.8879 150.688 19.9839 150.892 20.1759 151.052C20.3759 151.204 20.6559 151.28 21.0159 151.28C21.2479 151.28 21.4679 151.252 21.6759 151.196C21.8919 151.132 22.0839 151.04 22.2519 150.92C22.4199 150.792 22.5519 150.636 22.6479 150.452C22.7439 150.26 22.7919 150.036 22.7919 149.78V148.124ZM26.0848 152V146H26.8648L26.9968 146.984C27.1648 146.616 27.4088 146.34 27.7288 146.156C28.0568 145.972 28.4528 145.88 28.9168 145.88C29.0208 145.88 29.1328 145.888 29.2528 145.904C29.3808 145.92 29.4888 145.952 29.5768 146L29.4088 146.876C29.3208 146.844 29.2248 146.82 29.1208 146.804C29.0168 146.788 28.8688 146.78 28.6768 146.78C28.4288 146.78 28.1768 146.852 27.9208 146.996C27.6728 147.14 27.4648 147.36 27.2968 147.656C27.1288 147.944 27.0448 148.312 27.0448 148.76V152H26.0848ZM36.2512 146L33.6592 148.592L33.4312 148.82L31.4632 150.788V149.588L35.0392 146H36.2512ZM31.9432 143.24V152H30.9832V143.24H31.9432ZM33.7432 148.1L36.3952 152H35.2312L32.9392 148.64L33.7432 148.1ZM45.7831 144.08V149.288C45.7831 150.176 45.5431 150.872 45.0631 151.376C44.5911 151.872 43.9351 152.12 43.0951 152.12C42.5031 152.12 42.0151 152.008 41.6311 151.784C41.2471 151.56 40.9791 151.244 40.8271 150.836C40.6831 150.42 40.6631 149.936 40.7671 149.384L41.6551 149.204C41.5671 149.884 41.6271 150.392 41.8351 150.728C42.0511 151.056 42.4591 151.22 43.0591 151.22C43.7391 151.22 44.2031 151.036 44.4511 150.668C44.6991 150.292 44.8231 149.752 44.8231 149.048V144.08H45.7831ZM50.5063 145.88C51.0743 145.88 51.5743 146.004 52.0063 146.252C52.4463 146.5 52.7903 146.86 53.0383 147.332C53.2863 147.796 53.4103 148.352 53.4103 149C53.4103 149.648 53.2863 150.208 53.0383 150.68C52.7903 151.144 52.4463 151.5 52.0063 151.748C51.5743 151.996 51.0743 152.12 50.5063 152.12C49.9463 152.12 49.4463 151.996 49.0063 151.748C48.5663 151.5 48.2223 151.144 47.9743 150.68C47.7263 150.208 47.6023 149.648 47.6023 149C47.6023 148.352 47.7263 147.796 47.9743 147.332C48.2223 146.86 48.5663 146.5 49.0063 146.252C49.4463 146.004 49.9463 145.88 50.5063 145.88ZM50.5063 146.708C50.0983 146.708 49.7503 146.8 49.4623 146.984C49.1743 147.168 48.9503 147.432 48.7903 147.776C48.6383 148.112 48.5623 148.52 48.5623 149C48.5623 149.472 48.6383 149.88 48.7903 150.224C48.9503 150.568 49.1743 150.832 49.4623 151.016C49.7503 151.2 50.0983 151.292 50.5063 151.292C50.9143 151.292 51.2623 151.2 51.5503 151.016C51.8383 150.832 52.0583 150.568 52.2103 150.224C52.3703 149.88 52.4503 149.472 52.4503 149C52.4503 148.52 52.3703 148.112 52.2103 147.776C52.0583 147.432 51.8383 147.168 51.5503 146.984C51.2623 146.8 50.9143 146.708 50.5063 146.708ZM55.2176 152V143.24H56.1776V146.9C56.3856 146.54 56.6616 146.28 57.0056 146.12C57.3496 145.96 57.7256 145.88 58.1336 145.88C58.5656 145.88 58.9576 145.964 59.3096 146.132C59.6616 146.292 59.9416 146.54 60.1496 146.876C60.3656 147.212 60.4736 147.64 60.4736 148.16V152H59.5136V148.496C59.5136 147.832 59.3696 147.372 59.0816 147.116C58.8016 146.852 58.4536 146.72 58.0376 146.72C57.7496 146.72 57.4616 146.788 57.1736 146.924C56.8856 147.06 56.6456 147.284 56.4536 147.596C56.2696 147.9 56.1776 148.308 56.1776 148.82V152H55.2176ZM62.6473 152V146H63.4873L63.5713 147.344L63.4153 147.212C63.5433 146.892 63.7153 146.636 63.9313 146.444C64.1473 146.244 64.3953 146.1 64.6753 146.012C64.9633 145.924 65.2593 145.88 65.5633 145.88C65.9953 145.88 66.3873 145.964 66.7393 146.132C67.0913 146.292 67.3713 146.54 67.5793 146.876C67.7953 147.212 67.9033 147.64 67.9033 148.16V152H66.9433V148.496C66.9433 147.832 66.7993 147.372 66.5113 147.116C66.2313 146.852 65.8833 146.72 65.4673 146.72C65.1793 146.72 64.8913 146.788 64.6033 146.924C64.3153 147.06 64.0753 147.28 63.8833 147.584C63.6993 147.888 63.6073 148.296 63.6073 148.808V152H62.6473ZM72.2369 152.12C71.6529 152.12 71.1129 151.996 70.6169 151.748C70.1289 151.5 69.7529 151.148 69.4889 150.692L70.3049 150.104C70.4809 150.472 70.7369 150.76 71.0729 150.968C71.4169 151.176 71.8289 151.28 72.3089 151.28C72.7329 151.28 73.0649 151.2 73.3049 151.04C73.5449 150.872 73.6649 150.656 73.6649 150.392C73.6649 150.224 73.6089 150.072 73.4969 149.936C73.3929 149.792 73.1889 149.688 72.8849 149.624L71.4449 149.324C70.8609 149.204 70.4409 149.004 70.1849 148.724C69.9369 148.444 69.8129 148.096 69.8129 147.68C69.8129 147.352 69.9049 147.052 70.0889 146.78C70.2809 146.508 70.5489 146.292 70.8929 146.132C71.2449 145.964 71.6569 145.88 72.1289 145.88C72.7209 145.88 73.2209 145.996 73.6289 146.228C74.0369 146.46 74.3409 146.788 74.5409 147.212L73.7369 147.74C73.6009 147.388 73.3809 147.132 73.0769 146.972C72.7729 146.804 72.4569 146.72 72.1289 146.72C71.8409 146.72 71.5929 146.76 71.3849 146.84C71.1849 146.92 71.0289 147.032 70.9169 147.176C70.8129 147.312 70.7609 147.468 70.7609 147.644C70.7609 147.82 70.8209 147.984 70.9409 148.136C71.0609 148.28 71.2849 148.384 71.6129 148.448L73.1129 148.76C73.6729 148.872 74.0649 149.056 74.2889 149.312C74.5129 149.568 74.6249 149.88 74.6249 150.248C74.6249 150.624 74.5249 150.956 74.3249 151.244C74.1249 151.524 73.8449 151.74 73.4849 151.892C73.1249 152.044 72.7089 152.12 72.2369 152.12ZM78.8891 145.88C79.4571 145.88 79.9571 146.004 80.3891 146.252C80.8291 146.5 81.1731 146.86 81.4211 147.332C81.6691 147.796 81.7931 148.352 81.7931 149C81.7931 149.648 81.6691 150.208 81.4211 150.68C81.1731 151.144 80.8291 151.5 80.3891 151.748C79.9571 151.996 79.4571 152.12 78.8891 152.12C78.3291 152.12 77.8291 151.996 77.3891 151.748C76.9491 151.5 76.6051 151.144 76.3571 150.68C76.1091 150.208 75.9851 149.648 75.9851 149C75.9851 148.352 76.1091 147.796 76.3571 147.332C76.6051 146.86 76.9491 146.5 77.3891 146.252C77.8291 146.004 78.3291 145.88 78.8891 145.88ZM78.8891 146.708C78.4811 146.708 78.1331 146.8 77.8451 146.984C77.5571 147.168 77.3331 147.432 77.1731 147.776C77.0211 148.112 76.9451 148.52 76.9451 149C76.9451 149.472 77.0211 149.88 77.1731 150.224C77.3331 150.568 77.5571 150.832 77.8451 151.016C78.1331 151.2 78.4811 151.292 78.8891 151.292C79.2971 151.292 79.6451 151.2 79.9331 151.016C80.2211 150.832 80.4411 150.568 80.5931 150.224C80.7531 149.88 80.8331 149.472 80.8331 149C80.8331 148.52 80.7531 148.112 80.5931 147.776C80.4411 147.432 80.2211 147.168 79.9331 146.984C79.6451 146.8 79.2971 146.708 78.8891 146.708ZM83.6004 152V146H84.4404L84.5244 147.344L84.3684 147.212C84.4964 146.892 84.6684 146.636 84.8844 146.444C85.1004 146.244 85.3484 146.1 85.6284 146.012C85.9164 145.924 86.2124 145.88 86.5164 145.88C86.9484 145.88 87.3404 145.964 87.6924 146.132C88.0444 146.292 88.3244 146.54 88.5324 146.876C88.7484 147.212 88.8564 147.64 88.8564 148.16V152H87.8964V148.496C87.8964 147.832 87.7524 147.372 87.4644 147.116C87.1844 146.852 86.8364 146.72 86.4204 146.72C86.1324 146.72 85.8444 146.788 85.5564 146.924C85.2684 147.06 85.0284 147.28 84.8364 147.584C84.6524 147.888 84.5604 148.296 84.5604 148.808V152H83.6004Z" fill="#121212"/>
<rect width="124" height="32" transform="translate(0 165)" fill="white"/>
<path d="M9.296 185V177.08H14.852V177.98H10.256V180.536H13.832V181.436H10.256V184.1H15.032V185H9.296ZM16.7683 185V179H17.6083L17.6683 179.936C17.8843 179.568 18.1643 179.3 18.5083 179.132C18.8603 178.964 19.2203 178.88 19.5883 178.88C20.0123 178.88 20.4123 178.976 20.7883 179.168C21.1643 179.36 21.4523 179.656 21.6523 180.056C21.7803 179.784 21.9603 179.564 22.1923 179.396C22.4243 179.22 22.6763 179.092 22.9483 179.012C23.2283 178.924 23.4923 178.88 23.7403 178.88C24.1243 178.88 24.4883 178.96 24.8323 179.12C25.1843 179.28 25.4723 179.528 25.6963 179.864C25.9203 180.2 26.0323 180.632 26.0323 181.16V185H25.0723V181.256C25.0723 180.712 24.9363 180.32 24.6643 180.08C24.3923 179.84 24.0563 179.72 23.6563 179.72C23.3443 179.72 23.0523 179.796 22.7803 179.948C22.5083 180.1 22.2883 180.324 22.1203 180.62C21.9603 180.916 21.8803 181.28 21.8803 181.712V185H20.9203V181.256C20.9203 180.712 20.7843 180.32 20.5123 180.08C20.2403 179.84 19.9043 179.72 19.5043 179.72C19.2403 179.72 18.9683 179.792 18.6883 179.936C18.4163 180.072 18.1883 180.292 18.0043 180.596C17.8203 180.9 17.7283 181.3 17.7283 181.796V185H16.7683ZM28.6858 177.848C28.4698 177.848 28.2938 177.784 28.1578 177.656C28.0298 177.52 27.9658 177.344 27.9658 177.128C27.9658 176.912 28.0298 176.74 28.1578 176.612C28.2938 176.476 28.4698 176.408 28.6858 176.408C28.9018 176.408 29.0738 176.476 29.2018 176.612C29.3378 176.74 29.4058 176.912 29.4058 177.128C29.4058 177.344 29.3378 177.52 29.2018 177.656C29.0738 177.784 28.9018 177.848 28.6858 177.848ZM29.1658 179V185H28.2058V179H29.1658ZM32.3053 176.24V183.476C32.3053 183.78 32.3613 183.992 32.4733 184.112C32.5853 184.224 32.7653 184.28 33.0133 184.28C33.1733 184.28 33.3053 184.268 33.4093 184.244C33.5133 184.22 33.6533 184.176 33.8293 184.112L33.6733 184.952C33.5453 185.008 33.4053 185.048 33.2533 185.072C33.1013 185.104 32.9453 185.12 32.7853 185.12C32.2973 185.12 31.9333 184.988 31.6933 184.724C31.4613 184.46 31.3453 184.056 31.3453 183.512V176.24H32.3053ZM39.6886 179L36.8686 186.008C36.7166 186.4 36.5486 186.708 36.3646 186.932C36.1886 187.164 35.9886 187.328 35.7646 187.424C35.5486 187.528 35.2966 187.58 35.0086 187.58C34.7366 187.58 34.4846 187.54 34.2526 187.46C34.0286 187.388 33.8286 187.288 33.6526 187.16L33.9166 186.32C34.0766 186.464 34.2446 186.568 34.4206 186.632C34.6046 186.704 34.7846 186.74 34.9606 186.74C35.1686 186.74 35.3646 186.676 35.5486 186.548C35.7326 186.42 35.9006 186.16 36.0526 185.768L36.3646 184.988L35.7646 183.56L33.8566 179H34.9486L36.4486 182.912L36.8206 183.98L37.2526 182.792L38.6566 179H39.6886ZM48.1013 185.12C47.3493 185.12 46.6973 184.956 46.1453 184.628C45.6013 184.292 45.1773 183.82 44.8733 183.212C44.5773 182.604 44.4293 181.88 44.4293 181.04C44.4293 180.2 44.5853 179.476 44.8973 178.868C45.2173 178.26 45.6613 177.792 46.2293 177.464C46.7973 177.128 47.4493 176.96 48.1853 176.96C48.9693 176.96 49.6053 177.108 50.0933 177.404C50.5893 177.7 50.9893 178.156 51.2933 178.772L50.4173 179.252C50.2413 178.796 49.9613 178.452 49.5773 178.22C49.2013 177.98 48.7373 177.86 48.1853 177.86C47.6493 177.86 47.1733 177.988 46.7573 178.244C46.3493 178.492 46.0253 178.856 45.7853 179.336C45.5533 179.808 45.4373 180.376 45.4373 181.04C45.4373 181.704 45.5373 182.276 45.7373 182.756C45.9453 183.228 46.2493 183.592 46.6493 183.848C47.0573 184.096 47.5533 184.22 48.1373 184.22C48.4653 184.22 48.7693 184.18 49.0493 184.1C49.3373 184.012 49.5853 183.884 49.7933 183.716C50.0093 183.548 50.1773 183.336 50.2973 183.08C50.4173 182.824 50.4773 182.524 50.4773 182.18V181.904H47.9573V181.004H51.3533V185H50.5973L50.5493 183.524L50.7533 183.56C50.5453 184.056 50.2173 184.44 49.7693 184.712C49.3213 184.984 48.7653 185.12 48.1013 185.12ZM53.4129 185V179H54.1929L54.3249 179.984C54.4929 179.616 54.7369 179.34 55.0569 179.156C55.3849 178.972 55.7809 178.88 56.2449 178.88C56.3489 178.88 56.4609 178.888 56.5809 178.904C56.7089 178.92 56.8169 178.952 56.9049 179L56.7369 179.876C56.6489 179.844 56.5529 179.82 56.4489 179.804C56.3449 179.788 56.1969 179.78 56.0049 179.78C55.7569 179.78 55.5049 179.852 55.2489 179.996C55.0009 180.14 54.7929 180.36 54.6249 180.656C54.4569 180.944 54.3729 181.312 54.3729 181.76V185H53.4129ZM60.6318 185.12C60.0638 185.12 59.5558 184.996 59.1078 184.748C58.6678 184.5 58.3238 184.144 58.0758 183.68C57.8278 183.208 57.7038 182.648 57.7038 182C57.7038 181.352 57.8278 180.796 58.0758 180.332C58.3238 179.86 58.6638 179.5 59.0958 179.252C59.5278 179.004 60.0198 178.88 60.5718 178.88C61.1318 178.88 61.6078 179 61.9998 179.24C62.3998 179.48 62.7038 179.808 62.9118 180.224C63.1198 180.632 63.2238 181.092 63.2238 181.604C63.2238 181.74 63.2198 181.864 63.2118 181.976C63.2038 182.088 63.1918 182.188 63.1758 182.276H58.3278V181.424H62.7558L62.2638 181.52C62.2638 180.944 62.1038 180.5 61.7838 180.188C61.4718 179.876 61.0598 179.72 60.5478 179.72C60.1558 179.72 59.8158 179.812 59.5278 179.996C59.2478 180.172 59.0278 180.432 58.8678 180.776C58.7158 181.112 58.6398 181.52 58.6398 182C58.6398 182.472 58.7198 182.88 58.8798 183.224C59.0398 183.568 59.2638 183.832 59.5518 184.016C59.8478 184.192 60.1998 184.28 60.6078 184.28C61.0478 184.28 61.4038 184.196 61.6758 184.028C61.9558 183.86 62.1798 183.632 62.3478 183.344L63.1038 183.788C62.9518 184.06 62.7558 184.296 62.5158 184.496C62.2838 184.696 62.0078 184.852 61.6878 184.964C61.3758 185.068 61.0238 185.12 60.6318 185.12ZM67.5576 185.12C66.9896 185.12 66.4816 184.996 66.0336 184.748C65.5936 184.5 65.2496 184.144 65.0016 183.68C64.7536 183.208 64.6296 182.648 64.6296 182C64.6296 181.352 64.7536 180.796 65.0016 180.332C65.2496 179.86 65.5896 179.5 66.0216 179.252C66.4536 179.004 66.9456 178.88 67.4976 178.88C68.0576 178.88 68.5336 179 68.9256 179.24C69.3256 179.48 69.6296 179.808 69.8376 180.224C70.0456 180.632 70.1496 181.092 70.1496 181.604C70.1496 181.74 70.1456 181.864 70.1376 181.976C70.1296 182.088 70.1176 182.188 70.1016 182.276H65.2536V181.424H69.6816L69.1896 181.52C69.1896 180.944 69.0296 180.5 68.7096 180.188C68.3976 179.876 67.9856 179.72 67.4736 179.72C67.0816 179.72 66.7416 179.812 66.4536 179.996C66.1736 180.172 65.9536 180.432 65.7936 180.776C65.6416 181.112 65.5656 181.52 65.5656 182C65.5656 182.472 65.6456 182.88 65.8056 183.224C65.9656 183.568 66.1896 183.832 66.4776 184.016C66.7736 184.192 67.1256 184.28 67.5336 184.28C67.9736 184.28 68.3296 184.196 68.6016 184.028C68.8816 183.86 69.1056 183.632 69.2736 183.344L70.0296 183.788C69.8776 184.06 69.6816 184.296 69.4416 184.496C69.2096 184.696 68.9336 184.852 68.6136 184.964C68.3016 185.068 67.9496 185.12 67.5576 185.12ZM71.9754 185V179H72.8154L72.8994 180.344L72.7434 180.212C72.8714 179.892 73.0434 179.636 73.2594 179.444C73.4754 179.244 73.7234 179.1 74.0034 179.012C74.2914 178.924 74.5874 178.88 74.8914 178.88C75.3234 178.88 75.7154 178.964 76.0674 179.132C76.4194 179.292 76.6994 179.54 76.9074 179.876C77.1234 180.212 77.2314 180.64 77.2314 181.16V185H76.2714V181.496C76.2714 180.832 76.1274 180.372 75.8394 180.116C75.5594 179.852 75.2114 179.72 74.7954 179.72C74.5074 179.72 74.2194 179.788 73.9314 179.924C73.6434 180.06 73.4034 180.28 73.2114 180.584C73.0274 180.888 72.9354 181.296 72.9354 181.808V185H71.9754Z" fill="#121212"/>
<rect width="124" height="32" transform="translate(0 198)" fill="white"/>
<path d="M13.58 210.08V215.288C13.58 216.176 13.34 216.872 12.86 217.376C12.388 217.872 11.732 218.12 10.892 218.12C10.3 218.12 9.812 218.008 9.428 217.784C9.044 217.56 8.776 217.244 8.624 216.836C8.48 216.42 8.46 215.936 8.564 215.384L9.452 215.204C9.364 215.884 9.424 216.392 9.632 216.728C9.848 217.056 10.256 217.22 10.856 217.22C11.536 217.22 12 217.036 12.248 216.668C12.496 216.292 12.62 215.752 12.62 215.048V210.08H13.58ZM18.3271 218.12C17.7591 218.12 17.2511 217.996 16.8031 217.748C16.3631 217.5 16.0191 217.144 15.7711 216.68C15.5231 216.208 15.3991 215.648 15.3991 215C15.3991 214.352 15.5231 213.796 15.7711 213.332C16.0191 212.86 16.3591 212.5 16.7911 212.252C17.2231 212.004 17.7151 211.88 18.2671 211.88C18.8271 211.88 19.3031 212 19.6951 212.24C20.0951 212.48 20.3991 212.808 20.6071 213.224C20.8151 213.632 20.9191 214.092 20.9191 214.604C20.9191 214.74 20.9151 214.864 20.9071 214.976C20.8991 215.088 20.8871 215.188 20.8711 215.276H16.0231V214.424H20.4511L19.9591 214.52C19.9591 213.944 19.7991 213.5 19.4791 213.188C19.1671 212.876 18.7551 212.72 18.2431 212.72C17.8511 212.72 17.5111 212.812 17.2231 212.996C16.9431 213.172 16.7231 213.432 16.5631 213.776C16.4111 214.112 16.3351 214.52 16.3351 215C16.3351 215.472 16.4151 215.88 16.5751 216.224C16.7351 216.568 16.9591 216.832 17.2471 217.016C17.5431 217.192 17.8951 217.28 18.3031 217.28C18.7431 217.28 19.0991 217.196 19.3711 217.028C19.6511 216.86 19.8751 216.632 20.0431 216.344L20.7991 216.788C20.6471 217.06 20.4511 217.296 20.2111 217.496C19.9791 217.696 19.7031 217.852 19.3831 217.964C19.0711 218.068 18.7191 218.12 18.3271 218.12ZM24.9049 218.12C24.3209 218.12 23.7809 217.996 23.2849 217.748C22.7969 217.5 22.4209 217.148 22.1569 216.692L22.9729 216.104C23.1489 216.472 23.4049 216.76 23.7409 216.968C24.0849 217.176 24.4969 217.28 24.9769 217.28C25.4009 217.28 25.7329 217.2 25.9729 217.04C26.2129 216.872 26.3329 216.656 26.3329 216.392C26.3329 216.224 26.2769 216.072 26.1649 215.936C26.0609 215.792 25.8569 215.688 25.5529 215.624L24.1129 215.324C23.5289 215.204 23.1089 215.004 22.8529 214.724C22.6049 214.444 22.4809 214.096 22.4809 213.68C22.4809 213.352 22.5729 213.052 22.7569 212.78C22.9489 212.508 23.2169 212.292 23.5609 212.132C23.9129 211.964 24.3249 211.88 24.7969 211.88C25.3889 211.88 25.8889 211.996 26.2969 212.228C26.7049 212.46 27.0089 212.788 27.2089 213.212L26.4049 213.74C26.2689 213.388 26.0489 213.132 25.7449 212.972C25.4409 212.804 25.1249 212.72 24.7969 212.72C24.5089 212.72 24.2609 212.76 24.0529 212.84C23.8529 212.92 23.6969 213.032 23.5849 213.176C23.4809 213.312 23.4289 213.468 23.4289 213.644C23.4289 213.82 23.4889 213.984 23.6089 214.136C23.7289 214.28 23.9529 214.384 24.2809 214.448L25.7809 214.76C26.3409 214.872 26.7329 215.056 26.9569 215.312C27.1809 215.568 27.2929 215.88 27.2929 216.248C27.2929 216.624 27.1929 216.956 26.9929 217.244C26.7929 217.524 26.5129 217.74 26.1529 217.892C25.7929 218.044 25.3769 218.12 24.9049 218.12ZM31.233 218.12C30.649 218.12 30.109 217.996 29.613 217.748C29.125 217.5 28.749 217.148 28.485 216.692L29.301 216.104C29.477 216.472 29.733 216.76 30.069 216.968C30.413 217.176 30.825 217.28 31.305 217.28C31.729 217.28 32.061 217.2 32.301 217.04C32.541 216.872 32.661 216.656 32.661 216.392C32.661 216.224 32.605 216.072 32.493 215.936C32.389 215.792 32.185 215.688 31.881 215.624L30.441 215.324C29.857 215.204 29.437 215.004 29.181 214.724C28.933 214.444 28.809 214.096 28.809 213.68C28.809 213.352 28.901 213.052 29.085 212.78C29.277 212.508 29.545 212.292 29.889 212.132C30.241 211.964 30.653 211.88 31.125 211.88C31.717 211.88 32.217 211.996 32.625 212.228C33.033 212.46 33.337 212.788 33.537 213.212L32.733 213.74C32.597 213.388 32.377 213.132 32.073 212.972C31.769 212.804 31.453 212.72 31.125 212.72C30.837 212.72 30.589 212.76 30.381 212.84C30.181 212.92 30.025 213.032 29.913 213.176C29.809 213.312 29.757 213.468 29.757 213.644C29.757 213.82 29.817 213.984 29.937 214.136C30.057 214.28 30.281 214.384 30.609 214.448L32.109 214.76C32.669 214.872 33.061 215.056 33.285 215.312C33.509 215.568 33.621 215.88 33.621 216.248C33.621 216.624 33.521 216.956 33.321 217.244C33.121 217.524 32.841 217.74 32.481 217.892C32.121 218.044 31.705 218.12 31.233 218.12ZM35.8812 210.848C35.6652 210.848 35.4892 210.784 35.3532 210.656C35.2252 210.52 35.1612 210.344 35.1612 210.128C35.1612 209.912 35.2252 209.74 35.3532 209.612C35.4892 209.476 35.6652 209.408 35.8812 209.408C36.0972 209.408 36.2692 209.476 36.3972 209.612C36.5332 209.74 36.6012 209.912 36.6012 210.128C36.6012 210.344 36.5332 210.52 36.3972 210.656C36.2692 210.784 36.0972 210.848 35.8812 210.848ZM36.3612 212V218H35.4012V212H36.3612ZM41.0727 211.88C41.4887 211.88 41.8527 211.944 42.1647 212.072C42.4847 212.2 42.7607 212.384 42.9927 212.624C43.2247 212.864 43.4127 213.148 43.5567 213.476L42.6447 213.908C42.5167 213.524 42.3207 213.232 42.0567 213.032C41.8007 212.824 41.4647 212.72 41.0487 212.72C40.6487 212.72 40.3047 212.812 40.0167 212.996C39.7287 213.172 39.5087 213.432 39.3567 213.776C39.2047 214.112 39.1287 214.52 39.1287 215C39.1287 215.472 39.2047 215.88 39.3567 216.224C39.5087 216.568 39.7287 216.832 40.0167 217.016C40.3047 217.192 40.6487 217.28 41.0487 217.28C41.3607 217.28 41.6287 217.232 41.8527 217.136C42.0847 217.04 42.2727 216.9 42.4167 216.716C42.5687 216.532 42.6727 216.308 42.7287 216.044L43.6167 216.356C43.4807 216.724 43.2927 217.04 43.0527 217.304C42.8207 217.568 42.5367 217.772 42.2007 217.916C41.8727 218.052 41.4967 218.12 41.0727 218.12C40.5127 218.12 40.0127 217.996 39.5727 217.748C39.1327 217.5 38.7887 217.144 38.5407 216.68C38.2927 216.208 38.1687 215.648 38.1687 215C38.1687 214.352 38.2927 213.796 38.5407 213.332C38.7887 212.86 39.1327 212.5 39.5727 212.252C40.0127 212.004 40.5127 211.88 41.0727 211.88ZM48.8075 214.124C48.8075 213.676 48.6875 213.332 48.4475 213.092C48.2075 212.844 47.8675 212.72 47.4275 212.72C47.0115 212.72 46.6595 212.812 46.3715 212.996C46.0835 213.172 45.8715 213.46 45.7355 213.86L44.9555 213.38C45.1155 212.932 45.4115 212.572 45.8435 212.3C46.2755 212.02 46.8115 211.88 47.4515 211.88C47.8835 211.88 48.2755 211.956 48.6275 212.108C48.9795 212.252 49.2555 212.476 49.4555 212.78C49.6635 213.076 49.7675 213.46 49.7675 213.932V216.836C49.7675 217.124 49.9195 217.268 50.2235 217.268C50.3755 217.268 50.5235 217.248 50.6675 217.208L50.6195 217.964C50.4595 218.044 50.2515 218.084 49.9955 218.084C49.7635 218.084 49.5555 218.04 49.3715 217.952C49.1875 217.864 49.0435 217.732 48.9395 217.556C48.8355 217.372 48.7835 217.144 48.7835 216.872V216.752L49.0235 216.788C48.9275 217.1 48.7635 217.356 48.5315 217.556C48.2995 217.748 48.0395 217.892 47.7515 217.988C47.4635 218.076 47.1795 218.12 46.8995 218.12C46.5475 218.12 46.2195 218.06 45.9155 217.94C45.6115 217.82 45.3675 217.64 45.1835 217.4C45.0075 217.152 44.9195 216.848 44.9195 216.488C44.9195 216.04 45.0675 215.672 45.3635 215.384C45.6675 215.088 46.0875 214.888 46.6235 214.784L48.9995 214.316V215.108L47.0675 215.504C46.6755 215.584 46.3835 215.696 46.1915 215.84C45.9995 215.984 45.9035 216.184 45.9035 216.44C45.9035 216.688 45.9995 216.892 46.1915 217.052C46.3915 217.204 46.6715 217.28 47.0315 217.28C47.2635 217.28 47.4835 217.252 47.6915 217.196C47.9075 217.132 48.0995 217.04 48.2675 216.92C48.4355 216.792 48.5675 216.636 48.6635 216.452C48.7595 216.26 48.8075 216.036 48.8075 215.78V214.124ZM56.089 218V210.08H58.909C59.845 210.08 60.529 210.276 60.961 210.668C61.393 211.06 61.609 211.592 61.609 212.264C61.609 212.664 61.493 213.028 61.261 213.356C61.029 213.676 60.701 213.88 60.277 213.968V213.98C60.749 214.068 61.121 214.284 61.393 214.628C61.673 214.964 61.813 215.348 61.813 215.78C61.813 216.452 61.561 216.992 61.057 217.4C60.553 217.8 59.833 218 58.897 218H56.089ZM57.049 217.1H59.125C59.693 217.1 60.113 216.984 60.385 216.752C60.665 216.52 60.805 216.196 60.805 215.78C60.805 215.356 60.665 215.032 60.385 214.808C60.113 214.576 59.693 214.46 59.125 214.46H57.049V217.1ZM57.049 213.56H58.921C60.041 213.56 60.601 213.128 60.601 212.264C60.601 211.408 60.041 210.98 58.921 210.98H57.049V213.56ZM63.7488 218V212H64.5288L64.6608 212.984C64.8288 212.616 65.0728 212.34 65.3928 212.156C65.7208 211.972 66.1168 211.88 66.5808 211.88C66.6848 211.88 66.7968 211.888 66.9168 211.904C67.0448 211.92 67.1528 211.952 67.2408 212L67.0728 212.876C66.9848 212.844 66.8888 212.82 66.7848 212.804C66.6808 212.788 66.5328 212.78 66.3408 212.78C66.0928 212.78 65.8408 212.852 65.5848 212.996C65.3368 213.14 65.1288 213.36 64.9608 213.656C64.7928 213.944 64.7088 214.312 64.7088 214.76V218H63.7488ZM70.9438 211.88C71.5118 211.88 72.0118 212.004 72.4438 212.252C72.8838 212.5 73.2278 212.86 73.4758 213.332C73.7238 213.796 73.8478 214.352 73.8478 215C73.8478 215.648 73.7238 216.208 73.4758 216.68C73.2278 217.144 72.8838 217.5 72.4438 217.748C72.0118 217.996 71.5118 218.12 70.9438 218.12C70.3838 218.12 69.8838 217.996 69.4438 217.748C69.0038 217.5 68.6598 217.144 68.4118 216.68C68.1638 216.208 68.0398 215.648 68.0398 215C68.0398 214.352 68.1638 213.796 68.4118 213.332C68.6598 212.86 69.0038 212.5 69.4438 212.252C69.8838 212.004 70.3838 211.88 70.9438 211.88ZM70.9438 212.708C70.5358 212.708 70.1878 212.8 69.8998 212.984C69.6118 213.168 69.3878 213.432 69.2278 213.776C69.0758 214.112 68.9998 214.52 68.9998 215C68.9998 215.472 69.0758 215.88 69.2278 216.224C69.3878 216.568 69.6118 216.832 69.8998 217.016C70.1878 217.2 70.5358 217.292 70.9438 217.292C71.3518 217.292 71.6998 217.2 71.9878 217.016C72.2758 216.832 72.4958 216.568 72.6478 216.224C72.8078 215.88 72.8878 215.472 72.8878 215C72.8878 214.52 72.8078 214.112 72.6478 213.776C72.4958 213.432 72.2758 213.168 71.9878 212.984C71.6998 212.8 71.3518 212.708 70.9438 212.708ZM82.9916 212H84.0596L81.9716 218H81.0116L79.3196 213.224L77.7236 218H76.7636L74.6756 212H75.7436L77.2556 216.884L78.8876 212H79.8476L81.4796 216.884L82.9916 212ZM85.4988 218V212H86.3388L86.4228 213.344L86.2668 213.212C86.3948 212.892 86.5668 212.636 86.7828 212.444C86.9988 212.244 87.2468 212.1 87.5268 212.012C87.8148 211.924 88.1108 211.88 88.4148 211.88C88.8468 211.88 89.2388 211.964 89.5908 212.132C89.9428 212.292 90.2228 212.54 90.4308 212.876C90.6468 213.212 90.7548 213.64 90.7548 214.16V218H89.7948V214.496C89.7948 213.832 89.6508 213.372 89.3628 213.116C89.0828 212.852 88.7348 212.72 88.3188 212.72C88.0308 212.72 87.7428 212.788 87.4548 212.924C87.1668 213.06 86.9268 213.28 86.7348 213.584C86.5508 213.888 86.4588 214.296 86.4588 214.808V218H85.4988Z" fill="#121212"/>
<rect width="124" height="32" transform="translate(0 231)" fill="white"/>
<rect width="124" height="32" transform="translate(0 264)" fill="white"/>
<rect width="124" height="32" transform="translate(0 297)" fill="white"/>
<rect width="124" height="32" transform="translate(0 330)" fill="white"/>
<rect width="124" height="32" transform="translate(0 363)" fill="white"/>
<rect width="124" height="32" transform="translate(0 396)" fill="white"/>
<rect width="124" height="32" transform="translate(0 429)" fill="white"/>
<rect width="124" height="32" transform="translate(0 462)" fill="white"/>
<rect width="124" height="32" transform="translate(0 495)" fill="white"/>
<rect width="124" height="32" transform="translate(0 528)" fill="white"/>
<rect width="124" height="32" transform="translate(0 561)" fill="white"/>
<rect width="124" height="32" transform="translate(0 594)" fill="white"/>
<rect width="124" height="32" transform="translate(0 627)" fill="white"/>
<rect width="124" height="32" transform="translate(0 660)" fill="white"/>
<rect width="124" height="32" transform="translate(0 693)" fill="white"/>
<rect width="124" height="32" transform="translate(0 726)" fill="white"/>
<rect width="124" height="32" transform="translate(0 759)" fill="white"/>
<rect width="124" height="32" transform="translate(0 792)" fill="white"/>
<rect width="124" height="32" transform="translate(0 825)" fill="white"/>
<rect width="124" height="32" transform="translate(0 858)" fill="white"/>
</svg>
